<?xml version="1.0" encoding="UTF-8" standalone="no"?>
<svg
   xmlns:dc="http://purl.org/dc/elements/1.1/"
   xmlns:cc="http://creativecommons.org/ns#"
   xmlns:rdf="http://www.w3.org/1999/02/22-rdf-syntax-ns#"
   xmlns:svg="http://www.w3.org/2000/svg"
   xmlns="http://www.w3.org/2000/svg"
   version="1.1"
   id="svg2"
   viewBox="0 0 708.66142 708.66141"
   height="200mm"
   width="200mm">
  <defs
     id="defs4" />
  <metadata
     id="metadata7">
    <rdf:RDF>
      <cc:Work
         rdf:about="">
        <dc:format>image/svg+xml</dc:format>
        <dc:type
           rdf:resource="http://purl.org/dc/dcmitype/StillImage" />
        <dc:title></dc:title>
      </cc:Work>
    </rdf:RDF>
  </metadata>
  <g
     transform="translate(0,-343.70079)"
     id="layer1">
    <g
       transform="matrix(0.45833437,0,0,0.45833437,-1629.5558,446.25431)"
       id="g3359">
      <ellipse
         style="opacity:0.53000004;fill:#ffffff;fill-opacity:1;stroke:#000000;stroke-width:4.01549196;stroke-linecap:round;stroke-linejoin:round;stroke-miterlimit:4;stroke-dasharray:none;stroke-dashoffset:0;stroke-opacity:1"
         id="path3357"
         cx="4339.6177"
         cy="559.94379"
         rx="745.81903"
         ry="740.05975" />
      <path
         id="path3349"
         d="m 4308.6046,1308.5404 c -159.0895,-6.4165 -312.1164,-62.0254 -435.5,-158.2576 -34.0309,-26.5422 -77.2834,-67.0556 -103.3447,-96.8 -108.058,-123.3299 -170.8973,-271.55379 -184.2979,-434.71826 -2.0342,-24.76842 -2.3096,-85.64888 -0.4958,-109.60594 13.9444,-184.17995 91.7546,-352.0077 222.3103,-479.49792 129.9516,-126.90033 294.3068,-200.80942 477.3281,-214.65026 21.9649,-1.66108 85.0352,-1.66108 107,0 183.0213,13.84084 347.3765,87.74993 477.3281,214.65026 119.5295,116.72288 196.091,269.67218 217.6929,434.89198 4.4696,34.18523 5.7859,56.16305 5.7859,96.60594 0,40.44289 -1.3163,62.42071 -5.7859,96.60594 -19.1754,146.66075 -81.0762,282.61226 -180.1763,395.71826 -26.0613,29.7444 -69.3138,70.2578 -103.3447,96.8 -115.3405,89.959 -257.6401,144.903 -405,156.3765 -19.1386,1.4901 -71.7681,2.5963 -89.5,1.8811 z m 88.1117,-11.9037 c 208.2254,-16.2923 398.432,-117.5106 528.0064,-280.9781 82.031,-103.4881 134.5651,-227.54117 151.8203,-358.50582 4.4578,-33.8342 5.8482,-56.65649 5.8482,-95.99418 0,-49.5649 -3.1619,-86.16212 -11.3606,-131.49418 -36.4282,-201.41831 -158.0742,-380.62509 -333.426,-491.19741 -102.8585,-64.85994 -216.8226,-102.59036 -341.108,-112.93159 -27.4114,-2.28077 -89.3726,-2.28077 -116.784,0 -100.3377,8.34865 -190.3385,33.4557 -279.0746,77.85194 -127.4172,63.74908 -237.5655,167.5082 -308.6774,290.77252 -55.5001,96.20314 -87.0993,197.77968 -96.4368,309.99872 -2.3456,28.18993 -2.3456,85.81007 0,114 14.8129,178.02303 88.6157,337.222 214.7112,463.1503 133.4655,133.2885 310.1261,209.7657 501.8696,217.2616 16.3354,0.6386 66.3419,-0.5043 84.6117,-1.9338 z m 200.7265,-370.2281 c -43.4934,-48.3414 -71.3054,-78.1361 -102.5411,-109.8508 -10.8884,-11.05541 -19.7946,-20.50541 -19.7917,-20.99998 0,-0.49457 2.7853,-4.49922 6.183,-8.89922 23.8181,-30.84494 39.7648,-52.7702 39.1373,-53.81009 -0.395,-0.65445 -2.7253,-4.11491 -5.1786,-7.68991 -10.2033,-14.86841 -17.0477,-34.96651 -20.1079,-59.04497 -0.591,-4.65027 -1.504,-19.25503 -2.0289,-32.45503 -2.0063,-50.45221 -10.9856,-98.61431 -24.1027,-129.27861 -20.7026,-48.39715 -55.7988,-78.60412 -100.9467,-86.88379 -13.1245,-2.4069 -48.931,-2.41384 -64.5825,-0.0125 -61.3896,9.41863 -130.4084,51.92255 -175.6569,108.17492 -12.3875,15.39999 -23.1062,32.34845 -32.2539,51 -13.5076,27.54094 -16.7527,37.99598 -21.486,69.22254 -3.445,22.7278 -5.7053,30.09626 -14.9629,48.77746 -7.7052,15.54861 -13.8862,23.89468 -22.5286,30.41971 -6.9644,5.25823 -20.2916,12.18562 -29.0509,15.10054 -3.5227,1.17227 -7.2459,2.88478 -8.2737,3.80558 -2.5,2.23957 -22.7623,89.96737 -21.1571,91.60167 0.5794,0.5899 27.4557,23.1225 59.7251,50.0725 32.2693,26.95 58.8429,49.5625 59.0524,50.25 0.2989,0.9814 -6.2979,1.25 -30.6947,1.25 l -31.0754,0 -12.2579,-9.3328 c -54.459,-41.4635 -118.3125,-91.0995 -118.5612,-92.1626 -0.1668,-0.7131 4.8957,-20.3598 11.25,-43.65931 6.3543,-23.29949 11.5533,-43.11674 11.5533,-44.03836 0,-1.10541 -3.3489,-3.42699 -9.8404,-6.82173 -17.3236,-9.05945 -36.3698,-25.07319 -53.4266,-44.92013 -16.0923,-18.72481 -24.0204,-32.60299 -27.2723,-47.74042 -3.6296,-16.89558 -4.2324,-72.54197 -1.0177,-93.94509 7.03,-46.80404 32.8105,-93.73031 84.904,-154.54404 14.9876,-17.49655 32.954,-34.60956 81.153,-77.29874 52.3353,-46.35261 73.376,-67.50339 91.7071,-92.18679 25.5311,-34.3785 37.2216,-66.08479 38.4752,-104.35001 0.5699,-17.39245 0.045,-25.24638 -3.2738,-49 -1.982,-14.1859 -2.3436,-41.84337 -0.6227,-47.63351 2.337,-7.86286 6.361,-7.91947 10.3271,-0.14529 4.5552,8.92905 10.4616,38.76604 14.3928,72.70825 4.2389,36.59813 -5.7435,81.78995 -26.5223,120.07055 -19.359,35.66496 -42.5077,61.73436 -106.9834,120.48158 -44.8803,40.89279 -59.2737,55.51045 -77.411,78.61699 -17.3538,22.10831 -31.824,48.29187 -39.4597,71.40143 -4.8631,14.71844 -11.6373,46.1361 -13.641,63.26473 -4.5818,39.16876 1.9494,76.69336 16.5674,95.18647 6.9901,8.84317 17.1006,13.02942 31.4443,13.01957 10.8234,-0.007 20.3805,-2.18996 30.1923,-6.8949 20.0626,-9.62033 24.0843,-19.01647 28.2817,-66.07587 4.9087,-55.03264 8.8489,-77.13618 19.6565,-110.26675 21.6485,-66.3632 59.516,-122.16495 111.665,-164.55021 59.5736,-48.41978 138.3583,-75.45092 219.7045,-75.38089 22.9603,0.0198 36.3055,1.04221 55.5,4.25213 67.8477,11.34624 127.4329,42.07784 179.3863,92.52012 38.6638,37.53922 66.8532,78.69382 94.3373,137.72626 12.5051,26.85938 24.8306,58.93237 26.3864,68.66189 0.6107,3.81925 0.5601,3.89658 -3.2448,4.95306 -2.1259,0.59028 -4.487,1.07575 -5.247,1.07881 -0.76,0.003 -6.9903,-5.28192 -13.8452,-11.74442 -22.6799,-21.3818 -28.3575,-26.49887 -28.8522,-26.00411 -0.2693,0.2693 3.587,12.57045 8.5696,27.33587 4.9827,14.76542 8.8786,27.31243 8.6577,27.88223 -0.2209,0.56981 -3.9539,5.76101 -8.2955,11.53601 -16.6363,22.12897 -22.2369,40.04999 -21.0621,67.39521 0.6559,15.26873 2.7018,23.58482 9.1676,37.26427 7.5891,16.05617 21.6645,32.31925 36.6649,42.36356 9.8136,6.57123 9.8851,6.65525 8.6582,10.17472 -1.598,4.58403 -11.4321,13.98282 -19.0976,18.25219 -8.3798,4.66722 -25.8339,10.76784 -39.1836,13.69561 -8.3752,1.83679 -13.1684,2.19532 -29.5,2.20656 -17.5343,0.0121 -20.2057,-0.2143 -26.5,-2.24544 -13.0506,-4.21135 -11.079,-5.20392 -21.9215,11.03598 -5.2682,7.89065 -9.5785,15.07388 -9.5785,15.96273 0,0.88884 28.7802,34.82871 63.9561,75.42191 35.1758,40.5933 63.7242,74.1809 63.4409,74.6393 -0.2833,0.4584 -13.7393,0.8334 -29.9022,0.8334 l -29.3873,0 -17.7693,-19.75 z m -643.197,7 c -1.8559,-4.6334 -19.1437,-66.5808 -18.7037,-67.0208 0.2269,-0.2269 1.0855,-0.034 1.908,0.4291 4.5683,2.571 86.5869,67.0473 86.6177,68.0917 0.029,0.9765 -7.4859,1.25 -34.3419,1.25 l -34.3786,0 -1.1015,-2.75 z m 696.52,-23.5 c -49.607,-55.9701 -85.5987,-97.14584 -85.234,-97.51055 0.2326,-0.23253 1.1934,0.008 2.1353,0.53556 4.9752,2.78429 146.3353,110.91769 146.3821,111.97499 0.043,0.9675 -5.4754,1.25 -24.4127,1.25 l -24.4681,0 -14.4026,-16.25 z m 75.8388,-173.79934 c -9.627,-1.81855 -14.9988,-3.58746 -15.2315,-5.01571 -0.2165,-1.32856 28.5335,-23.94495 30.4164,-23.92732 1.4678,0.0137 31.7171,23.46621 31.5906,24.49237 -0.068,0.55 -2.9701,1.82295 -6.4494,2.82878 -7.3829,2.13431 -32.3069,3.13672 -40.3261,1.62188 z m -30.1414,-10.35561 c -24.0364,-12.90633 -40.8348,-33.15063 -48.2064,-58.09505 -8.816,-29.83231 -1.4037,-63.79984 18.9849,-87 2.4168,-2.75 4.9484,-5.7197 5.6259,-6.59934 1.019,-1.32299 -0.4134,-6.0564 -8.2891,-27.39312 -5.2366,-14.18657 -9.2689,-26.04591 -8.9607,-26.35407 0.3082,-0.30817 9.0497,7.92025 19.4256,18.28537 14.3615,14.34657 19.3064,18.7113 20.7132,18.28282 1.0164,-0.30957 4.998,-1.88329 8.848,-3.49717 24.1765,-10.1345 52.8235,-10.1345 77,0 3.85,1.61388 7.7757,3.17298 8.7237,3.46468 1.2339,0.37964 6.9173,-4.46687 20,-17.05487 10.052,-9.67186 18.4326,-17.12733 18.6236,-16.56771 0.1911,0.55963 -4.014,11.32671 -9.3445,23.92685 l -9.692,22.90934 7.1917,8.29861 c 16.5735,19.12447 24.2136,39.09708 24.2136,63.29861 0,29.70333 -13.39,56.57925 -37.4461,75.16024 -6.7272,5.19614 -21.4357,13.29906 -24.1841,13.32305 -1.0528,0.009 -9.7153,-5.8379 -19.25,-12.99353 l -17.3359,-13.01024 0,-12.50237 0,-12.50237 5.362,-2.37133 c 5.4762,-2.42186 8.638,-5.65241 8.638,-8.82596 0,-2.86592 -2.4621,-2.04089 -3.7005,1.24 -3.0365,8.04465 -20.1892,7.66335 -23.2997,-0.51795 -1.1129,-2.92719 -2.9998,-3.32623 -2.9998,-0.6344 0,2.92972 3.5442,6.70034 8.4777,9.01938 l 4.5223,2.12573 0,12.42933 0,12.42933 -10.25,7.89164 c -19.0039,14.63141 -23.8667,18.23952 -24.5598,18.22274 -0.3796,-0.009 -4.3538,-1.9839 -8.8316,-4.38824 z m 17.0626,-91.15906 c 2.2895,-2.28951 0.2688,-5.57823 -8.5925,-13.98481 -7.3056,-6.93078 -18.2442,-13.58194 -24.52,-14.90933 -7.0923,-1.50008 -9.545,3.83737 -4.689,10.20391 3.2753,4.29423 12.9995,11.51717 20.8803,15.50959 9.8648,4.99748 14.2753,5.82652 16.9212,3.18064 z m 70.694,-0.79329 c 7.4479,-3.06377 18.7807,-10.67821 23.2418,-15.61608 9.9052,-10.96392 2.4394,-15.9276 -12.4487,-8.27662 -7.5897,3.9003 -23.2438,17.58095 -24.444,21.36241 -1.6221,5.11101 4.5817,6.26094 13.6509,2.53029 z"
         style="fill:#070707" />
    </g>
  </g>
</svg>
